<?xml version="1.0" encoding="utf-8"?>
<!-- Generator: Adobe Illustrator 16.0.0, SVG Export Plug-In . SVG Version: 6.00 Build 0)  -->
<!DOCTYPE svg PUBLIC "-//W3C//DTD SVG 1.1//EN" "http://www.w3.org/Graphics/SVG/1.1/DTD/svg11.dtd">
<svg version="1.1" id="Layer_1" xmlns="http://www.w3.org/2000/svg" xmlns:xlink="http://www.w3.org/1999/xlink" x="0px" y="0px"
	 width="848.024px" height="1000px" viewBox="0 0 848.024 1000" enable-background="new 0 0 848.024 1000" xml:space="preserve">
<g>
	<path d="M547.561,70.849c-3.337,1.026-6.117,2.332-8.832,3.637l-1.026,0.47c-1.818,1.904-3.787,3.829-5.884,5.925l-0.834-0.299
		c-3.764-1.37-7.593-2.717-11.506-3.915l-0.278,0.748l-0.406,1.07l-1.283,3.508l-0.191,0.556l-0.344,0.941l-0.342,0.983
		l-0.256,0.642l2.267,1.52l1.989,1.24l2.373,1.604l1.027,0.899l0.235,0.171l4.661-4.685l2.546-2.609l0.193-0.192l0.427-0.471
		l0.856-0.855l0.191-0.214l0.022-0.021l0.085-0.106h0.022l1.389-1.305l0.065-0.064l0.234-0.257l2.759-2.887
		c1.884-1.626,4.684-2.824,8.001-3.744c2.267-0.62,4.812-1.09,7.42-1.454l3.808-0.492c3.636-0.362,7.508-0.471,11.551-0.299
		c17.858,0.685,39.012,6.202,58.561,13.304c11.999,4.342,23.441,9.261,33.109,14.053c1.988,0.384,4.043,0.77,6.138,1.175
		c7.059,1.327,14.674,2.632,22.437,3.037c6.631,0.386,13.326,0.108,19.827-1.368l1.369-0.642l2.396-1.262v-0.021l-3.357,0.77
		c-2.288,0.449-5.155,0.771-8.963,0.727c-11.613,0-19.571-0.599-27.697-1.817c-4.235-0.598-8.513-1.369-13.389-2.31
		c-8.556-4.234-17.111-8.385-25.987-12.17c-21.345-9.09-44.51-15.849-73.704-15.293C554.448,69.16,550.747,69.865,547.561,70.849"/>
	<path d="M443.807,534.314c-2.461-4.407-4.854-8.706-7.209-12.428l-1.732-3.209l-0.041-0.063c-1.969-4.043-3.337-8.407-5.349-11.702
		l-0.235-0.297l-3.101-3.273l-0.92-1.392l-0.363-0.962c-1.154-3.059-1.625-6.822-2.481-9.73h-0.812l-3.508,0.642
		c-2.931,1.604-4.171,5.454-5.112,8.79l-0.535,1.946c-1.71,5.713-5.432,12.812-6.737,19.74l-0.427,3.957
		c-0.065,2.632,0.32,5.198,1.476,7.637l-0.171,0.813c-1.584,8.233-5.092,18.414-5.584,18.414l-0.577,0.941
		c-2.694,4.299-4.49,5.135-5.09,9.69c-0.277,2.139-0.277,5.133-0.021,9.667v0.063l0.043,1.007c1.004,1.496,1.946,3.078,2.458,5.088
		l0.386,4.173l3.315,3.762c1.048,2.055,1.646,4.601,1.967,7.38l0.321,4.277l0.022,1.968l0.063,3.229l0.343,1.411l0.258,1.029v0.021
		l0.705,4.641l1.026,0.301l1.689,0.492l5.774,3.079c2.118,1.582,4.193,3.636,6.074,6.438l1.454,2.437l0.087,0.194l0.983,1.859
		l0.771,1.903l0.62,1.434c-0.492-0.128-2.289-0.962-4.813-1.67l-1.775-0.447c-3.208-0.663-7.229-0.898-11.313,0.578l0.021,0.361
		l0.107,1.178l0.535,4.939l0.32,1.883l0.085,0.321l0.064,0.321l-0.064,2.566c-0.343,2.331-1.262,5.495-2.246,9.367l-0.021,0.085
		l-0.898,3.744c3.229,1.218,6.588,3.314,9.774,6.632l1.155,1.218h0.021v0.022l-0.021-0.022l2.331,3.081l1.369,2.18l-3.08-0.769
		c-3.208-0.728-8.32-1.456-13.39,0.15l-0.234,2.544c-0.15,1.775-0.258,3.722-0.321,5.989l-0.086,1.539
		c-0.042,1.946-0.085,4.214-0.085,6.908l-0.021,0.535l-0.215,0.984l-0.726,3.85l-0.364,2.245l-0.085,0.686l-0.129,0.896
		c3.059,1.328,6.224,3.444,9.196,6.609l1.477,1.755l0.791,1.007l1.732,2.544c-0.577-0.108-2.994-0.899-6.268-1.326
		c-2.288-0.299-4.962-0.407-7.742,0.043l0.193,3.271l0.641,2.459c-1.496,2.44-2.074,4.75-2.074,6.888l0.749,4.256l0.513,1.283
		l0.215,0.535l2.202,4.171c1.22,2.011,2.332,3.85,2.823,5.54l0.107,0.469l0.085,0.344l0.578,3.509
		c0.427,2.694,0.663,5.368,0.77,7.634l0.021,0.451v0.191l0.15,2.822l0.983,0.578l3.293,1.326c3.958,1.069,8.641,0.919,12.428,0.662
		l0.854-0.04c6.61-0.43,23.698,4.063,33.537,6.394l5.775-0.492c7.485-0.684,15.293-1.454,24.232-1.732l2.396-0.106
		c2.182-0.044,4.276-0.427,6.288-1.004l1.007-0.321c1.389-2.803,1.966-6.547,1.346-11.551l0.021-5.153l-0.105-2.974l-0.021-1.24
		l0.041-2.824c0.235-2.63,0.941-4.77,2.932-5.625l-1.498-0.897l-0.021-0.301l0.063-3.764l1.005-2.012l0.364-0.706l0.876-3.442
		c0.515-2.416,0.813-5.027,0.643-8.105c-4.663-10.032-8.876-20.511-13.238-30.842c-0.919-2.14-1.883-4.278-2.822-6.438
		c-0.984-2.268-2.012-4.535-3.059-6.76c-1.135-2.461-2.311-4.919-3.53-7.292c-1.775-3.486-3.637-6.888-5.583-10.16
		c-1.519-2.546-3.059-5.027-4.705-7.423l-0.92-1.261l-1.755-2.46c0.537-5.003-2.544-6.502-1.454-12.084l0.836,0.105l0.897-1.496
		l1.155-0.021l-0.108-2.76c0-3.357,0.387-6.351,0.836-9.261l0.342-2.225c0.449-2.951,0.771-5.989,0.555-9.347l-0.213-2.76
		c-0.342-2.523-0.982-5.112-1.73-7.699c-1.05-3.616-2.333-7.207-3.83-10.652c-0.962-2.225-1.968-4.319-2.973-6.353l-1.903-3.722
		l-2.396-4.319c-2.461-4.278-4.962-8.919-7.508-13.603c-1.412-2.589-2.78-5.155-4.191-7.701L443.807,534.314"/>
	<polyline points="511.865,101.457 513.361,100.237 510.088,99.831 508.548,103.059 511.865,101.457 	"/>
	<path d="M26.072,427.991v0.021c13.881-43.504,25.559-52.337,26.606-49.984l0.043,0.62c-3.486,10.139-7.058,21.153-10.373,32.831
		c-9.903,35.013-17.474,76.079-14.31,118.234c0.215,1.69,0.449,5.112,0.705,9.369c0.601,9.304,1.327,22.758,2.118,31.911
		c0.363,4.214,0.728,7.571,1.134,9.09c0.364,2.032,0.728,4.021,1.09,6.032l0.942,5.391c5.154,21.388,12.726,37.406,20.49,57.213
		v-0.022v0.022c-3.059-11.701-3.551-23.827-2.974-33.603c0.728-11.635,2.995-19.954,4.47-20.232l0.514,0.236
		c4.771,10.328,2.354,32.425,8.728,35.974l1.389,0.429c4.557-0.514,6.566,9.646,13.154,22.244
		c4.728,6.308,9.069,12.189,13.282,17.773c3.871,5.197,7.657,10.115,11.55,14.951v-0.022l3.059-4.191
		c2.694-4.236,3.893-7.85,5.453-12.576l0.856-2.546l1.112-3.144l1.689-4.407l0.855-3.402c0.535-2.501,0.983-4.896,1.219-5.389
		l0.129-0.021l0.064,0.065l0.021,0.041l0.128,0.341h0.043v0.022l0.065-0.213l0.042-0.065l0.064,0.022l1.54,4.191l0.149,1.154
		c0.278,2.055,0.877,6.183,1.197,8.493l0.193,1.496l1.283,3.616c1.434,4.596,1.775,8.404,2.396,12.404
		c0.471,3.014,1.112,6.158,2.589,9.902l0.405,0.235l0.448,0.234c0.643,0.943,0.899,4.406,1.947,8.278l2.161,5.539l0.598,1.241
		l-1.283-2.288l1.775,3.357l-0.449-0.962c1.112,2.052,2.289,4.084,3.465,6.072h-0.021l0.149,0.257l0.043,0.064l-0.277-0.406v-0.021
		l-0.043-0.065l0.021,0.022l-0.021-0.022l0.043,0.065h-0.021c0.236,0.406,1.262,2.14,2.438,4.148l2.097,3.508
		c1.346,2.288,2.438,4.191,2.287,3.915c7.102,10.587,11.636,17.153,16.277,22.863l2.888,3.443l3.935,1.391
		c10.095,3.551,17.924,5.048,26.843,5.389l4.17,0.086h2.461c3.913-0.063,8.084-0.234,12.812-0.513l1.155-0.065l0,0
		c2.608,0,5.024-0.19,7.314-0.447l0.085-0.021c2.245-0.257,4.406-0.641,6.587-1.027h0.043c4.342-0.791,8.77-1.625,14.01-1.989
		l1.775-0.128l3.807-0.085c2.396,0.022,4.962,0.128,7.765,0.406c2.288-0.022,7.144,0,7.144,0c4.855-0.663,9.924-0.299,13.924-1.092
		c0.277-1.903,0.834-3.893,1.775-5.946l0.299-0.427l0.236-0.362l3.4-2.185l0.021-0.02c2.054-0.94,4.685-1.884,7.658-2.888
		l4.362-1.477h0.021l2.14-0.727c4.705-1.625,9.624-3.508,13.88-5.924l2.481-1.263l4.855-2.629l2.031-1.155
		c7.295-4.279,12.598-8.407,16.256-12.063l0.428-0.449c2.993-3.081,4.877-5.818,5.817-7.978l0.749-2.547
		c0.769-8.404,0.47-16.468-0.515-24.447c-0.405-3.271-0.919-6.544-1.561-9.816c-0.557-3.059-1.24-6.074-1.99-9.112
		c-2.009-8.383-4.513-16.83-7.164-25.644l-0.685-2.202l-1.134-3.83c-0.492-1.71-1.004-2.973-2.459-5.56v-0.022V625l-0.448-0.748
		l-2.376-3.978c-0.512-2.27-0.791-4.45-0.919-6.524c-0.15-2.074-0.15-4.043-0.021-5.946c0.599-11.187,4.213-19.506-1.561-25.623
		l-2.567-2.204l-0.064-0.041l-0.62-0.406l-0.085-0.492l-0.043-0.257v-0.044c-0.706-5.176-1.903-9.839-3.124-14.479
		c-0.533-1.989-0.962-4.063-1.453-6.097l-1.027-4.34l-0.535-3.339c-0.47-3.145-0.854-6.459-0.854-10.115l-0.193-1.497l-0.171-1.24
		c-0.535-5.048-0.748-10.737-0.834-16.663c-0.172-10.713-0.043-22.328-1.197-33.023l-0.473-3.828
		c-0.62-1.817-1.047-3.828-1.389-5.903c-0.813-4.834-1.049-10.224-1.455-15.463l-1.604-1.604l0.191-1.22l0.6-4.256
		c0.407-3.016,0.749-6.096,1.112-9.197c1.219-10.821,2.374-21.709,5.412-30.692l-0.686-0.128l-0.535-0.085l-2.245,1.454
		l-0.813,0.171c-10.202-1.476-16.404,1.026-21.645,4.534c-3.979,2.695-7.421,5.946-11.613,8.428l-2.354,1.283
		c0.45,10.395,0.043,21.666-0.128,32.724c-0.106,6.523-0.106,12.918,0.192,19.035c0.214,4.685,0.556,9.197,1.219,13.39h0.021
		l0.128,1.048l-0.94,0.62l-0.406,5.668l1.347,2.29l-1.197,1.924l-0.043,0.064l-0.171,0.854l-0.299,1.411l0.427,4.492
		c0.856,4.407,2.438,8.982-0.149,11.87c1.006,4.173,1.413,8.92,1.562,13.946c0.15,4.791,0.064,9.796-0.106,14.887
		c-0.172,6.93-0.385,13.901-0.022,20.319l0.129,0.384l0.235,0.749c1.604,5.24,3.508,10.202,3.893,16.661l-1.112,0.065l-0.363,1.562
		l-0.257,0.47l-0.086,0.128H276.7l-1.006-0.105l0.086,1.517c0.086,2.76-0.386,6.052-0.106,8.641l0.684,2.333l0.792,1.069
		l0.897-0.344l0.898-0.641l1.112-1.306l0.578-0.557l2.202-0.749l-0.641,4.792c-0.6,4.643-1.24,9.22-2.717,12.982l-0.962,2.184
		l-1.369,2.115l0.277,4.278l-1.026,4.428l-0.92,4.769l-0.021,3.081l1.689,4.105l-0.429,0.515l-1.175,1.092v0.085l0.148,1.155
		l-1.412,3.549l-1.047,2.418c-1.498,3.872-3.486,10.223-4.834,16.403c-0.535,2.354-0.963,4.665-1.24,6.824l-0.492-3.337
		l-0.407-2.931v0.021v-0.021l-0.149-0.984l-0.128-0.984c-2.246-16.297-4.106-32.958-7.293-48.336l-0.086-0.385l0.898-1.604
		c0.449-1.669-0.406-3.528-1.412-5.496c-1.005-1.969-2.16-4.043-2.374-6.16l0.021-1.155l0.535-2.161l0.214-0.492l0.277-0.148
		l3.23,0.406l4.32,1.133l1.176-4.043l-0.77-5.454l-0.535-1.261c-0.833-2.054-1.775-4.193-2.331-6.629
		c-0.406-1.647-0.642-3.38-0.428-5.392l2.523-2.544l0.364-4.577l0.299,0.085l1.646-1.584l0.899,0.085
		c0.021-2.095,0.021-4.19,0.021-6.266c0.063-7.335,0.106-14.651,0.106-21.924c0-4.148-0.021-8.276-0.064-12.405v-5.665l-0.042-4.706
		l-0.021-3.314v-0.024v0.024l-0.022-1.712v-0.749c-0.043-3.593-0.043-7.229-0.105-10.802v-0.021l-0.022-1.347l-0.086-5.84v-0.6
		h-0.021l-0.064-3.785l-0.064-4.706v0.021v-0.021l-0.085-4.834c-0.021-2.01-0.064-4.042-0.107-6.074
		c-0.042-2.78-0.128-5.539-0.17-8.319c-0.172-9.048-0.386-18.073-0.601-27.078v-0.021v0.021l-0.043-1.861l-0.042-1.86l-1.027,0.235
		l-2.544,4.063l-0.171-0.043l-3.894-0.62l-0.727-0.192l-2.974-0.791l-3.314-1.348c-2.76-1.154-5.411-2.438-8-3.765
		c-2.759-1.433-5.561-2.865-8.662-3.935v-4.257l-2.289-0.77l-1.753-0.728l-1.283-1.176l-0.406-0.898
		c0.663-1.733,2.159-2.609,1.433-5.711l-1.476-0.063v-0.021l-1.411-0.514h-0.022l-1.261-0.792l-1.498-0.728
		c-0.685-2.01,0.3-2.353,0.94-3.016l0.471-1.262l-1.005-3.893c0.278-3.807,3.807-7.336,6.396-10.309l1.732-2.183
		c0.77-3.978-2.097-11.592,2.822-11.399h0.022l0.021,0.086l0.022,0.021l0.043,0.106l0.063,0.171c1.07,3.209,3.167,4.727,5.861,5.177
		l4.813-0.021c1.86-0.258,3.828-0.749,5.86-1.326l5.519-1.732c2.245-0.748,4.384-1.455,6.33-1.925l0.899-0.193l1.903-0.363
		c-1.07-3.422,1.775-2.973,4.276-2.823l3.209-4.685l2.694-3.956c6.375-10.608,10.78-23.206,12.62-38.371l-1.433-0.556l-0.963-0.92
		l-0.471-1.197l-0.021-0.236v-1.347h5.71l0.577-2.887c0.47-3.059,0.3-5.626-0.107-7.957c-0.342-2.182-0.855-4.192-1.176-6.246
		c2.78-0.663,1.796,2.481,4.963,1.412l1.004-3.808c0.663-2.031,1.541-3.828,3.295-4.726c-0.558-2.268-2.332-3.338-2.76-5.733
		l-0.086-1.39l1.263-0.192l3.188,2.245l0.085,0.108l0.491,0.299l0.664,0.385l1.989-2.631c2.33-2.759,5.153-5.005,8.19-7.036
		l2.632-1.712l0.276-3.742l0.044-2.846l-0.129-3.571l-0.406-3.914l-0.3-2.845c-0.876-7.101-1.796-13.859,0.515-20.127l-0.215-0.171
		l-1.091-0.962l-1.86-1.005c-1.946-0.706-4.148-0.45-6.802,0.727c0.363,2.738-0.983,3.765-2.844,4.256l0.663-1.732l0.47-1.262
		c1.903-4.342,4.577-7.85,7.229-11.422c3.208-4.32,6.31-8.726,7.807-14.736c0.556-2.352,0.941-4.919,0.919-7.849
		c-2.225-0.364-3.314-1.904-3.85-3.936c-0.705-2.652-0.492-6.224-0.427-9.668l-0.022,0.021v-0.021h0.022v-2.053l0.684,0.149
		l0.705-0.728l0.792-1.005l0.685,0.15c-2.76-10.46-0.449-20.79,5.133-26.906l3.401-2.995l-0.021-0.257
		c-0.278-2.289-0.193-4.278,0.064-6.053c0.556-4.363,2.374-7.508,4.94-9.86c3.187-2.973,7.336-4.897,11.272-7.101
		c3.721-2.075,7.207-4.406,9.367-8.063l2.566-2.331l2.802-2.589l1.434-1.325l2.374-2.16l1.711-1.583l1.861-1.69l4.299-3.913
		c5.068-4.62,10.522-9.54,15.271-13.774l0.534-0.514l2.803-2.737c8.896-9.389,4.214-12.939,4.214-12.939
		c0.042-3.208-0.407-6.332-1.263-9.048c-1.048-3.293-2.973-3.85-5.176-7.55c0-3.786,0.728-6.651,0.728-10.438l-0.085-0.235
		l-2.76-4.771l-0.192-4.084l0.043-3.315l0.043-3.379c0.149-2.46,0.491-4.771,0.94-6.952l0.107-0.876l0.94-3.017
		c4.534-14.929,16.448-22.479,35.162-23.228c7.402,0.149,13.753,1.604,19.164,4.086c-5.946-3.894-13.304-6.011-21.901-6.16
		c-4.32,0.149-8.17,0.834-11.784,1.775c-15.956,4.063-25.11,15.378-25.945,34.521c-3.741,0.213-6.544,0.406-7.893,0.62
		c-20.703,1.562-42.091,6.737-61.063,11.143c-14.886,5.177-27.292,10.139-39.205,16.77l-1.582,0.834
		c-2.226,1.262-4.363,2.759-6.481,4.277l-0.021,0.021v0.021l-1.947,2.097l-0.556,0.533l-2.396,2.097l-4.363,2.846l-0.577,0.299
		l-1.604,0.876l-2.589,1.392l-0.855,0.577l-0.064,0.043l-0.428,0.234l-3.358,2.075c-12.212,7.443-24.682,15.314-36.659,24.019
		l-0.021,0.021v0.021v-0.021l-0.043,0.043l-4.642,4.47l-0.043,0.064l-0.172,0.15l-0.834,0.748l-5.133,4.278
		c-3.037,2.267-6.116,4.49-9.218,6.716l-1.177,0.854l-0.086,0.064l-0.706,0.535l-0.94,0.662l-0.128,0.086l-3.165,3.08
		c-10.737,10.117-20.405,21.303-28.298,33.879l-3.357,5.305l-2.159,1.818c-12.727,10.63-13.048,7.699-28.426,28.018
		c-5.946,6.032-12.257,15.764-18.33,26.8l-3.145,5.84l-0.491,0.919c-5.817,11.145-11.294,23.1-15.957,33.644
		c-2.715,6.182-5.176,11.893-7.207,16.684c8.362-25.538,9.689-38.927,15.464-51.589c1.817-3.956,4.043-7.871,7.101-12.041
		l-0.064,0.064l0.064-0.064c-4.598,6.267-8.62,12.104-12.427,18.009c-6.843,10.565-12.939,21.281-19.976,34.649
		c0,0-10.417,29.408-13.325,36.466c-5.134,15.336-15.101,37.237-22.095,69.105c-2.074,9.434-3.914,19.7-5.261,30.971V427.991"/>
	<path d="M391.854,67.983l0.77,0.62l0.878,0.771l3.207,0.278l1.798-0.236l3.357-0.534h-0.021l-0.94-1.111
		c-2.161-0.13-8.428-1.563-9.775-0.301L391.854,67.983"/>
	<path d="M815.962,581.239c0.706-4.791,1.328-9.646,1.861-14.566c-0.533,4.898-1.155,9.753-1.861,14.503"/>
	<path d="M461.065,98.097l0.193,2.183l5.155,1.134c7.87,1.882,15.528,4.576,18.309,5.175l2.031-3.913
		c1.733-3.829,3.38-8.662,3.787-9.968l-3.829-4.148c-1.841-2.054-3.528-4.235-3.785-5.882c-0.278-1.647,0.342-3.829,2.394-5.263
		l0.088-0.063l0.19-0.149c0.706,0,2.994,0.385,5.561,0.834l3.724,0.642v0.043v-0.043c2.074,0.406,3.85,0.685,4.47,0.685l1.795-3.765
		l1.457-3.08l0.17-0.342l1.005-2.289c8.041-17.73,15.272-37.75,22.008-56.765c1.285-3.593,2.566-7.229,3.829-10.715l0.15-0.043
		c5.155-1.326,9.54-0.192,12.447,2.267h-0.021h0.021c-1.926-3.122-5.753-4.897-10.139-4.598l-3.656,0.834l-0.834,0.235
		c-3.679,10.353-7.551,21.345-11.614,32.339c-4.876,13.175-10.031,26.329-15.506,38.157l-5.027-1.07h-0.021h0.021
		c-10.416-2.844-20.982-5.539-31.697-8.021l0.193,3.017c0.128,2.074,0.171,4.191,0.128,6.373c-0.043,2.567-0.15,5.134-0.407,7.85
		c-0.233,2.631-0.962,5.711-1.582,8.855c-0.384,1.988-0.643,3.978-0.856,5.988L461.065,98.097"/>
	<path d="M711.353,161.942l-2.459-2.48c-1.732-1.349-3.914-2.589-6.011-3.722c-2.138-1.198-4.171-2.289-5.454-3.294l-0.405-0.278
		l-1.37-1.283h-0.021c-4.257-2.288-8.834-4.727-13.711-7.271h-0.021c-7.658-5.519-15.292-10.438-22.758-14.608l-4.512-2.481
		c-32.876-17.153-63.694-29.259-90.581-36.531c-7.057-1.925-13.858-3.551-20.317-4.791l-0.043,0.021
		c-2.91,2.608-6.824,6.417-11.978,11.871l-0.256,0.299l-0.984,1.026c-3.679,3.936-7.872,6.866-12.106,9.154
		c-5.09,2.716-10.182,4.449-14.481,5.476l-0.04,0.021h-0.065l-1.09,2.245l0.148,0.236c1.604,2.801,7.807,5.925,10.459,8.854
		c7.229,5.263,17.261,7.379,28.019,9.069l0.449,0.085l1.625,0.279l-0.021,1.945l1.027,1.092l0.404,0.982l0.045,0.236l-0.686,1.155
		l-0.771,2.972l-0.021,3.016v1.198l0.021,3.059l3.229,11.55v0.021l3.895,14.052l1.261,5.155c0.344,1.797,0.449,3.807,0.15,6.245
		c2.78-0.62,3.102,1.198,4.276,2.16l0.065,0.792c0.535,5.282-1.135,8.427-1.52,12.833l0.043,4.149l-4.598,1.539l-1.07,1.305
		c4.684,3.23,9.454,6.417,12.897,10.908l1.326,1.903h4.256l0.171,0.086l0.043,0.662l-0.043,0.514
		c-0.148,2.46-1.133,7.551-1.582,5.861l-0.813-0.236l-1.025,1.926l-1.926-0.663l-0.514-0.321l0.044-0.063l1.39-2.053l-3.594-0.044
		l-1.562-0.491l-2.672-0.899l-0.706,0.492l-0.364,0.642l-1.069,0.301c0.534,2.651,1.005,5.346,1.497,8.021
		c0.491,2.694,1.026,5.346,1.519,8.041c1.218,6.845,2.481,13.624,3.872,20.298c0.513,2.609,1.047,5.219,1.646,7.764h5.689l0.6,2.845
		c0.727,2.225,1.839,4.042,2.224,6.588l0.021,3.4l1.563,0.813l4.447,1.52l1.112,1.219l-3.636,3.4l-2.053,0.171l0.106,2.268
		l0.107,2.31l-0.299,2.096c-0.256,2.118-0.558,4.235-0.898,6.311l-0.321,2.074l-0.106,3.423l1.219,0.813l0.299,0.171l4.15,3.315
		l-0.043,0.043l-3.209,3.25l-1.519,0.728l-1.967,0.215l-0.387,0.042l0.086,1.711l-0.407,1.796l-0.211,0.492l-1.007,2.974
		l0.128,2.268l0.706,0.599l5.306,2.78l1.11,3.037c-3.464-0.621-3.656,2.032-7.122,1.412l-1.411,2.138v12.833l0.364,0.728
		l1.047,2.909l0.193,0.876l0.043,5.476l-0.45,2.845l-0.6,2.718l-1.09,5.239c-0.555,3.122-0.706,6.01,0.492,8.385l0.15,0.684
		c-0.022,1.241-2.353,0.128-1.584,2.182l1.499,3.743l-0.065,1.22l-1.712,1.154l-1.176,4.77l-0.021,0.106l0.063,5.391l0.534,0.171
		c2.396,1.026,4.3-0.257,6.589-0.898l-0.022,1.262c-0.299,3.486-3.658,3.958-5.603,5.797l-0.087,0.064
		c-0.191,3.165-0.128,6.159,1.092,7.956l0.342,0.577l3.742-0.813l2.525-0.512l0.834,0.62l-1.027,1.988l-0.663,0.728
		c-1.903,1.626-4.854,2.182-6.845,3.679l-0.105,2.01l-1.07,4.15l-2.031,1.796l-0.065,0.021l-1.946,0.492v0.021l-0.492,0.064
		l0.043,1.048c0.492,8.063,0.686,16.832,0.257,25.516l-0.362,5.732c-0.663,8.021-2.033,15.721-4.43,22.308
		c-1.09,2.952-2.396,5.604-3.912,8.021c-2.16,3.485-4.727,6.459-7.936,8.577l-0.62-0.193c-2.546-0.557-4.342-1.861-5.625-3.657
		c-1.476-2.054-2.267-4.813-2.739-7.829c-0.896-5.582-0.791-12.212-1.582-17.901l-0.15-1.048l-0.085-0.449
		c-2.652-10.63-1.133-25.431-1.196-38.67l-0.022-2.717l-0.107-3.742l-1.903-1.027c-2.694-1.305-5.582-2.459-6.394-5.646h-0.022
		l-0.148-0.77l-0.045-0.193l-0.021-0.171l-1.732,0.107l-0.449-0.064l-1.155-0.32l-0.427-0.193l-0.984-0.642l0.384,0.301
		l-0.063-0.043l-0.344-0.278l0.022,0.021l-0.427-0.32l-1.328-1.604l-0.362-0.62l-0.686-1.518l-0.299-0.835l-0.406-1.775l-0.15-0.834
		l-0.106-2.608l-0.042-0.172l-1.412-1.412l-0.128-0.021c-3.38-0.557-4.643,0.983-6.995,1.433
		c2.44,24.383,17.366,36.232,19.935,60.507l-1.519,1.69v0.021l-0.021,0.662l-0.022,0.172l0.214,0.706l0.064,0.128l0.749,1.647
		l0.214,0.491l0.213,0.599v0.043l0.107,0.963c-0.085,1.946-2.93,11.422-2.845,14.266c0.236,7.893,5.133,12.363,4.279,19.207
		c-0.643,5.027-5.349,13.134-4.279,20.662l0.407,4.128c0.256,2.523,0.512,5.112,0.726,7.805l0.364,4.344
		c0.299,3.079,0.705,6.202,1.348,9.367l1.241,1.391l-0.193,4.449l-1.048,1.944c1.027,3.487,1.924,7.102,1.435,12.108l3.058,4.105
		l2.266,3.036c2.867,4.214,5.369,8.769,7.486,13.71c1.368,3.229,2.503,6.675,3.53,10.226c1.218,4.191,2.182,8.618,2.886,13.345
		l0.685,5.434c1.499,3.123,4.191,9.005,1.434,12.105v43.42c-2.952,3.014-1.004,5.58,0.428,8.575c0.813,1.69,1.477,3.508,1.026,5.647
		l-0.984-0.131l-0.491,1.392l-0.063,0.535h-0.022l-0.105,0.213l-0.601,0.278l-0.427-0.087l-0.171-0.041h-0.022l-0.02,0.385v0.171
		c-0.3,3.809,0.404,7.465,1.389,10.971l1.391,4.558l0.171,0.47l0.877,2.908l0.429,1.67c0.62,2.48,1.005,4.854,0.726,7.101
		c-0.318,2.354-1.325,4.599-3.528,6.63h0.021h-0.021c0.663,2.14,1.69,3.957,1.604,6.908v-0.021v0.021l-0.021,0.215l-0.129,1.432
		l1.582,0.686l2.29,1.005c3.614,1.67,8.982,4.558,13.091,8.641l1.924,2.034c1.519,1.858,2.694,3.912,3.337,6.202l1.689,0.233
		c6.908,1.007,15.122,1.304,24.83-0.641c9.07-1.199,18.652-16.726,18.652-16.726c4.641-3.679,3.102-3.958,7.85-17.495
		c5.518-0.643,3.466-8.299,3.742-8.387c1.753-3.485,1.883-4.189,1.753-4.447l-0.171-0.193c-0.191-0.236-0.276-0.704,1.092-3.807
		l0.385-0.854l0.321-0.771l0.171-0.364l0.15-0.299l1.155-2.268c0.939-1.903,2.202-4.404,3.55-7.571
		c1.497-4.361,1.304-7.38,1.859-10.629l0.386-1.818l2.245,2.632c1.155,0.382,2.245-0.984,2.953-5.798
		c0.043-1.625,2.587-4.063,2.587-7.059c0.387-2.521,1.456-2.929,2.717-1.241c0.984,1.306,2.097,3.893,3.102,7.958l0.256,1.067
		c3.807,5.82,2.803,10.119,3.443,13.67c0.472,2.587,1.817,4.769,6.546,6.886l0.085,0.043l2.694,5.197l0.791,0.812l1.884,1.52
		l4,2.418l1.625,3.314l1.519,3.038l1.432,2.801c2.76,5.004,5.241,6.993,9.753,3.23l2.566-1.777c2.376-1.517,4.45-2.993,5.52-8.703
		l0.278-1.456l1.369-5.432l0.235-0.749c1.625-4.939,1.54-8.043,4.405-12.021l1.496-1.86c1.456-2.373,2.868-4.769,4.257-7.185
		l0.364-2.739l0.042-0.278c0.279-3.25,0.299-6.908,1.884-10.245c3.869-8.041,15.549-12.104,14.266-27.076v-1.521l1.026-2.502
		c4.171-9.966,10.994-17.11,10.394-32.126c1.927-2.863,3.445-6.158,4.706-9.623c1.24-3.486,2.202-7.187,2.974-10.803l0.769-4.043
		l0.366-2.285c1.09-6.632,1.645-12.45,2.351-15.893l1.263-3.187l0.771,0.02l0.021,0.065c0.492,0.663,0.472,2.865,0.771,6.097v-0.045
		v0.045c0.342,3.485,1.153,8.169,3.594,13.131l0.021,0.086l0.064,0.128l1.711,2.993l1.218,1.883
		c1.883,6.032,3.038,20.642,5.069,25.538l1.007,1.52c0.684,0.449,1.24-1.991,2.031-5.005l0.257-0.919
		c0.898-3.209,2.097-6.78,4.043-8.257l0.278,0.939c1.025,3.466,2.074,9.176,3.87,15.87c0.834,3.104,1.796,6.354,3.036,9.733
		l0.75,1.903l0.449,1.175c1.025,2.526,1.39,5.414,1.668,8.342c0.385,3.767,0.729,7.594,2.311,10.632
		c1.71,3.185,3.636,6.78,5.368,10.628c1.389,3.038,2.652,6.202,3.485,9.541c3.252-6.824,6.888-15.573,10.502-25.005
		c5.454-14.373,10.78-30.414,14.373-44.186l0.043-0.107c0.427-2.288,0.771-4.644,1.178-6.974c0.384-2.311,0.812-4.62,1.152-6.972
		c1.027-15.422-1.197-34.735,0.473-53.001c0.449-4.877,1.112-9.668,2.267-14.286c6.224-2.054,3.015,5.816,8.533,4.511
		c3.616-11.464,5.09-26.393,5.69-41.813c0.555-15.207,0.235-30.885,0.235-44.125c1.688,1.198,3.443,4.663,4.962,8.064
		c2.16,4.748,3.893,9.325,4.426,7.186c0.301-1.219,0.215-4.619-0.362-11.441c-0.387-4.171-7.485-51.61-6.931-55.481
		c-0.105-2.566-0.214-5.112-0.276-7.679c-0.193-4.491-8.686-28.789-9.027-33.259l-1.197-11.4c0.085,0.813-2.396-5.433-6.053-14.351
		c-4.15-10.117-9.817-23.741-15.059-34.586v-0.021l-2.886-5.731l-0.087-0.193l-0.021-0.021l-2.225-5.71l-0.063-0.171l-0.045-0.128
		l-2.265-5.861l1.069,2.609l-1.114-2.716v0.021c-0.939-2.182-1.903-3.937-2.929-5.539l-1.627-2.375l-0.042-0.063
		c-2.566-2.589-8.021-7.999-12.255-13.304c-2.117-2.609-3.935-5.177-4.919-7.357v-2.995c-1.67-1.368-4.193-4.919-6.418-7.893
		l-3.014-3.679h0.02h-0.02l-1.286-1.069l-0.213-0.277l-0.727-0.878l-2.696-2.759c-5.195-5.176-11.634-11.336-14.437-17.944
		c-3.442-2.225-6.202-4.406-8.706-6.523C727.223,180.807,722.772,173,711.353,161.942"/>
	<path d="M501.534,392.251c1.369,0.728,2.993,1.133,5.025,1.048l2.674-0.299l0.813-1.563v0.021c1.069-2.096,2.052-4.299,2.715-6.801
		c0.643-2.503,1.007-5.326,0.836-8.662l-0.022-0.192l-0.043-1.327c3.124-3.123,7.742-4.79,10.974-7.849l0.384-0.321h-0.021h0.021
		c2.524-2.588,4.001-6.202,2.866-12.447c-1.155-0.685-1.753-1.883-1.477-4l0.045-0.278l1.303-2.16l0.321-1.005l0.021-0.021
		l0.45-0.343l0.748-0.042v-8.534c-1.347-3.315-2.78-4.214-4.191-6.31l-0.086-0.107c-1.283-1.946-3.85-6.865-5.562-10.502
		l-0.876-1.946l-0.686-1.796v-3.551c-1.155-2.737-3.164-5.325-4.812-8.042l-2.29-5.069v-0.085l-0.256-2.952l0.235-1.646l0.492-3.102
		l0.171-2.909h-0.021h0.021l-0.105-5.304c-0.086-2.097-0.236-4.256-0.387-6.566c-0.171-2.588-0.299-5.305-0.342-8.084
		c-0.042-2.438-0.02-4.941,0.171-7.509l-1.988-2.181l-0.834-0.984l-1.434-3.956l-1.54,1.112l-0.833,0.405l-0.472-0.106l0.215-1.818
		l-3.059-1.732l0.663-3.251c-0.235-1.967-1.413-4-3.251-5.475c-1.904-1.497-4.493-2.396-7.423-1.946l-0.342,1.689l-0.813,2.267
		l-0.791,1.477l-0.427,0.685l-1.798,4.342l-0.063,2.353c-3.528,1.091-4.834,4.405-6.117,7.785c-1.177,3.187-2.332,6.438-5.306,7.87
		v12.812c-2.436,1.733-3.442,4.129-3.784,6.909l-0.043,3.999l0.171,1.669c0.279,2.823,0.598,5.774,0.729,8.726l0.085,1.477
		l0.897,0.535l0.514,0.277c2.074,1.454,3.486,3.615,5.369,5.262l0.342,0.342l0.643,3.743c0.896,3.657,2.629,7.102,4.148,10.522
		c2.202,4.963,3.998,9.774,2.353,14.908l1.668,4.791l0.728,3.379c0.364,2.075,0.598,4.235,0.428,6.823l1.411,2.823v5.689
		c3.016,4.876,3.442,12.705,5.283,18.864C497.064,387.716,498.667,390.733,501.534,392.251"/>
	<polyline points="713.042,102.46 713.042,102.482 714.368,99.082 714.519,98.398 714.197,98.526 713.919,99.467 713.042,102.482 
		713.042,102.46 	"/>
	<path d="M553.7,456.972l-2.14,2.182c-2.097,1.669-5.176,3.293-8,4.214l-3.935,0.748l-1.048-0.214l-0.342-0.128l-0.663-0.385
		l0.063,3.229c0.406,8.021,3.081,16.897,5.283,20.127l1.625,1.262l3.658-2.374c3.122-3.807,4.706-11.164,5.261-14.736v-0.021
		l0.15-0.983l0.043-0.449c0.404-3.615,0.021-6.417,0.404-13.197v-0.063L553.7,456.972"/>
	<path d="M552.673,427.371l-0.748-0.514l-0.556-0.32c-1.154-0.684-2.781-1.519-4.771-2.139l-0.342-0.086
		c-2.074-0.599-4.406-0.876-6.802-0.514l-1.027,0.215v-0.021l-0.47,0.149l-1.047,0.363l-1.155,0.557
		c0.233,1.347,0.213,15.656,2.566,24.532v0.021l1.261,3.615l2.737,3.166l0.064,0.021h1.903l0.942-0.514
		c1.86-1.069,3.357-2.76,4.492-4.919l1.881-5.134c0.641-2.481,1.069-5.133,1.263-7.764v-0.021v0.021v-0.129
		C553.143,434.065,553.037,430.237,552.673,427.371"/>
	<path d="M415.082,65.31l-0.685,1.882c5.562-1.519,10.268-0.92,12.128-4.128l0.063-0.149l0.43-1.027l1.283-2.673l0.321-0.835
		c-3.872,0.984-5.069,2.438-8.407,4.385v0.021C418.932,63.535,417.308,64.39,415.082,65.31"/>
	<path d="M647.465,835.053h0.045c0-3.57,2.908-6.458,6.459-6.458l0.063-0.813h-30.198v0.02h-26.309v0.065
		c-3.551,0.278-6.309,3.209-6.309,6.825h0.021v29.727l-1.562,0.022l-8.362,10.052c0,0,4.256,0.086,9.924,0v30.372h-0.021
		c0,3.551-2.888,6.461-6.481,6.461l-0.022,0.789h28.576l-0.022-0.789c-3.121,0-5.667-2.185-6.33-5.093l1.989-32.531
		c3.465-0.319,6.523-0.748,8.618-1.368c4.577-1.392,8.791-3.466,11.85-5.176l2.332,38.543c-2.845,5.218-6.523,6.394-6.332,6.328
		l40.83,0.537c-11.421-4.43-18.266-7.679-18.758-7.936 M609.481,864.378l1.218-20.129c5.433,0,11.742,0,17.324-0.021l1.198,20.084
		L609.481,864.378z"/>
	<path d="M357.335,843.867c8.49-12,22.135-16.021,22.135-16.021h-72.334l0.021,0.749c3.294,0,6.011,2.48,6.396,5.689v30.455
		l-8.127,9.775c0,0,3.357,0.063,8.127,0.022v26.733c0,0,21.346,13.816,34.286,17.688c11.656-4.405,26.479-25.837,26.479-25.837
		s-12.47,10.846-23.398,10.203c-5.476-0.342-13.903-5.775-20.939-11.145l1.604-18.158c5.497-0.321,10.503-0.836,13.304-1.689
		c8.876-2.672,16.576-8.021,16.576-8.021l-29.045,0.065l1.818-20.471C342.341,843.93,351.346,843.93,357.335,843.867"/>
	<path d="M561.55,903.326c-5.497-0.302-13.924-5.775-20.94-11.145l1.583-18.136c5.496-0.344,10.48-0.858,13.326-1.712
		c8.854-2.672,16.553-8.021,16.553-8.021l-29.023,0.065l1.775-20.234c5.005,0,10.245-0.021,14.737-0.043l25.9-16.405l-67.715,0.105
		l0.021,0.794c3.337,0,6.011,2.48,6.396,5.667v30.478l-8.128,9.775c0,0,3.359,0.043,8.128,0.022v26.754
		c0,0,21.367,13.796,34.307,17.668c11.614-4.405,26.457-25.837,26.457-25.837S572.458,903.968,561.55,903.326"/>
	<path d="M136.606,892.181l1.582-18.158c5.497-0.321,10.503-0.855,13.326-1.689c8.876-2.672,16.554-8.041,16.554-8.041
		l-29.045,0.086l1.775-20.234c5.025,0,10.267-0.021,14.736-0.065l26.5-16.34l-68.293,0.063l0.043,0.794
		c3.272,0,5.989,2.48,6.395,5.667v30.478l-8.148,9.753c0,0,3.358,0.065,8.148,0.045v26.733c0,0,21.324,13.816,34.266,17.688
		c11.634-4.405,26.478-25.837,26.478-25.837s-12.491,10.846-23.377,10.203C152.027,902.984,143.622,897.55,136.606,892.181"/>
	<path d="M472.659,877.745c22.201,0.278,39.548-9.198,48.251-24.938c-8.684-15.486-22.392-25.925-41.215-25.925l-15.313-0.256
		v-0.128h0.105l0.472-2.459c0.962-2.354,3.293-4,5.989-4l0.021-0.791h-55.097l0.021,0.791l4.728,2.097l1.732,4.362l0.106,0.128
		l-15.336,0.256c-18.821,0-32.531,10.438-41.192,25.925c8.704,15.739,26.029,25.216,48.251,24.938
		c-43.567,56.638-91.647,69.854-91.647,69.854s39.78,2.031,80.976-37.195c6.907-6.586,16.917-17.174,22.799-24.232l2.118,38.328
		l12.255,31.504l-1.176-129.505l0.686-2.801l3.229-3.123l3.314,3.357l0.555,2.566l-0.981,129.55l12.104-31.549l2.119-38.328
		c5.881,7.059,15.891,17.646,22.778,24.232c41.215,39.227,80.976,37.172,80.976,37.172S516.228,934.382,472.659,877.745
		 M386.614,852.443c5.647-8.897,17.667-16.234,36.745-17.088l1.926,33.277C402.763,868.398,392.196,861.405,386.614,852.443
		 M463.483,835.355c19.077,0.854,31.1,8.19,36.725,17.088c-5.562,8.962-16.148,15.955-38.65,16.189L463.483,835.355z"/>
	<path d="M212.557,905.55v-66.56c12.897-4.494,20.747-11.209,20.747-11.209H190.12l-25.452,16.256c0,0,17.238,0.428,30.649-1.092
		v61.919h-0.021c0,3.551-2.888,6.461-6.459,6.461l-0.022,0.789h30.158l-0.021-0.789C215.615,911.326,212.898,908.799,212.557,905.55
		"/>
	<path d="M296.698,835.074h0.021c0-3.591,2.888-6.479,6.48-6.479l0.021-0.813h-33.044l0.021,0.813c3.593,0,6.48,2.888,6.48,6.479
		l1.775,29.26l-19.762,0.045l1.817-29.687c0.214-3.425,2.994-6.097,6.416-6.097l0.022-0.813h-32.918l0.022,0.813
		c3.315,0,6.01,2.501,6.395,5.667v30.179l-8.918,10.052c0,0,3.765,0.065,8.918,0v30.329h-0.021c0,3.594-2.909,6.523-6.481,6.523
		l-0.021,0.77h28.553l-0.021-0.77c-3.059,0-5.646-2.182-6.288-5.09l1.968-32.468c3.894-0.319,7.379-0.771,9.624-1.454
		c4.128-1.24,7.936-3.038,10.888-4.641l2.311,38.028c-2.867,5.175-6.546,6.394-6.332,6.308l40.81,0.558
		c-11.422-4.45-18.266-7.722-18.736-7.936"/>
	<path d="M848.024,817.667c0,0-24.576-8.708-36.595-5.454l-34.158,76.674l-33.579-76.674c-12-3.254-36.597,5.454-36.597,5.454
		s16.448-1.499,24.961,5.409l2.523,2.525v90.578c-8.276,7.165-24.768,6.14-24.768,6.14s24.811,7.976,36.725,4.385
		c2.331-4.771,3.443-13.861,3.443-13.861l2.908-48.529l23.656,56.444l0.533,1.903l25.582-59.867l2.416,61.344h-0.021
		c0,3.571-2.887,6.479-6.46,6.479l-0.043,0.794h43.525l-0.021-0.794c-3.337,0-18.01-2.523-18.374-5.753V851.18
		c7.252-5.347,20.426-4.169,20.426-4.169s-7.057-5.05-20.426-5.328v-19.034C832.324,816.253,848.024,817.667,848.024,817.667"/>
	<path d="M727.137,894.129c0,0-14.202,10.692-25.281,10.072c-5.58-0.342-14.158-5.903-21.302-11.335l5.09-57.748h0.043
		c0-3.636,5.496-6.568,9.133-6.568l0.022-0.834h-37.493l0.02,0.834c3.38,0,6.138,2.546,6.504,5.82l0.105,68.935
		c0,0,23.355,10.456,36.66,15.87C712.444,914.704,727.137,894.129,727.137,894.129"/>
	<path d="M103.626,916.179l-0.342-0.555v-91.886l0.042,0.045c7.465-7.765,26.5-6.117,26.5-6.117s-21.388-7.679-35.483-7.124
		c-5.539-0.128-10.929,1.304-11.891,1.562l4.791,78.687L36.574,812.19C24.554,808.938,0,817.667,0,817.667
		s16.425-1.499,24.917,5.409c1.283,1.027,3.699,4.234,6.502,8.214v10.394c-13.368,0.256-20.426,5.328-20.426,5.328
		s13.153-1.178,20.426,4.191v73.168c-0.364,3.231-15.015,6.245-18.373,6.245l-0.021,0.794H56.55l-0.021-0.794
		c-3.593,0-6.459-2.907-6.459-6.479h-0.021l2.31-59.634l39.289,62.2c11.914,3.591,36.725-4.385,36.725-4.385
		S111.902,923.344,103.626,916.179"/>
	<path d="M335.453,980.001l-1.198-0.896c-3.528-2.676-4.491-4.173-4.491-6.117c0-2.566,1.905-4.385,5.069-4.385
		c2.76,0,3.979,1.281,4.62,2.095l1.112,2.803l0.407,0.769l0.492-1.281c0-3.316,0.148-4.557,0.148-5.092l-0.599-0.533
		c-1.091-0.28-2.888-0.728-5.647-0.728c-5.903,0-9.815,3.357-9.815,8.041c0,3.465,1.604,6.418,6.288,10.095l1.967,1.541
		c3.507,2.758,4.17,4.706,4.17,6.78c0,2.266-1.881,4.876-5.71,4.876c-2.631,0-5.154-1.175-6.074-4.319l-0.385-2.184l-0.428-0.704
		l-0.514,1.11c-0.043,0.686-0.192,3.209-0.192,5.563l0.77,1.454c1.84,0.791,3.765,1.112,6.226,1.112
		c2.266,0,4.641-0.385,6.779-1.755c3.059-1.989,3.999-4.939,3.999-7.398C342.447,986.804,340.608,983.874,335.453,980.001"/>
	<path d="M378.83,966.957l-1.135,0.211l-2.93,0.195H357.89l-4.234-0.195l-1.84-0.532l-0.492,0.813l-0.897,4.876l0.362,0.704
		l0.492-0.513l0.729-1.497c0.62-0.919,1.646-1.135,4.105-1.22l6.331-0.191v17.473c0,3.893,0,7.272-0.191,9.05l-1.263,2.33
		l-1.497,0.171l-0.686,0.342l0.835,0.427l5.369-0.126c1.176,0,3.87,0.126,6.673,0.126l0.813-0.427l-0.685-0.342l-2.159-0.171
		l-1.67-2.289c-0.214-1.818-0.214-5.198-0.214-9.091v-17.473l5.369,0.15c3.786,0.086,4.919,1.261,5.005,2.371l0.042,0.472
		l0.472,0.856l0.385-0.685l0.128-4.92L378.83,966.957"/>
	<path d="M418.29,967.233l-4.854,0.13c-0.043,0-2.717-0.13-4.877-0.13l-0.898,0.364l0.706,0.406l1.541,0.108l1.838,2.415
		c0.086,1.392,0.086,2.566,0.086,9.025v5.326c0,4.385-0.129,8.214-2.481,10.544l-5.859,2.29l-5.326-1.732
		c-2.075-1.69-3.294-4.279-3.294-10.461v-5.967c0-6.459,0-7.634,0.086-9.025l1.562-2.415l1.24-0.108l0.663-0.406l-0.941-0.364
		l-5.218,0.13c-1.283,0-3.958-0.13-6.203-0.13l-0.941,0.364l0.728,0.406l1.668,0.108l1.796,2.415
		c0.107,1.392,0.107,2.566,0.107,9.025v6.225c0,6.16,1.604,9.304,3.786,11.272c3.102,2.803,7.186,2.929,9.433,2.929
		c2.759,0,5.817-0.47,8.854-3.079c3.593-3.038,4.043-8.063,4.043-12.791v-4.556c0-6.459,0-7.634,0.085-9.025l1.582-2.415l1.22-0.108
		l0.77-0.406L418.29,967.233"/>
	<path d="M441.026,967.233c-2.566,0-5.24,0.107-6.546,0.107c-1.175,0-3.87-0.107-6.117-0.107l-0.941,0.364l0.729,0.406l1.667,0.108
		l1.818,2.415c0.085,1.369,0.085,2.566,0.085,9.025v7.508c0,3.893,0,7.272-0.213,9.048l-1.241,2.33l-1.519,0.173l-0.684,0.362
		l0.856,0.407l2.931-0.086l2.416-0.043l4.171,0.257l4.898,0.258c7.85,0,12.297-3.018,14.243-5.026
		c2.375-2.418,4.62-6.504,4.62-11.873c0-5.067-1.988-8.575-4.107-10.8C453.452,967.233,446.351,967.233,441.026,967.233
		 M452.939,994.695c-2.566,2.204-5.454,3.059-9.796,3.059c-3.337,0-5.005-0.897-5.562-1.709l-0.447-3.209
		c-0.045-0.813-0.108-4.107-0.108-8.577v-5.369c0-3.357,0-7.079,0.063-8.513l0.492-0.876l2.76-0.278
		c3.337,0,8.171,0.512,12.105,4.258c1.818,1.753,4.063,5.219,4.063,10.628C456.511,988.472,455.656,992.343,452.939,994.695"/>
	<path d="M484.657,998.611l-2.182-0.173l-1.688-2.074c-0.151-1.817-0.151-5.175-0.151-9.304v-7.508c0-6.459,0-7.656,0.065-9.025
		l1.56-2.395l1.306-0.129l0.663-0.449l-0.898-0.321l-5.176,0.13l-5.54-0.13l-1.004,0.321l0.663,0.449l1.539,0.148l1.454,2.375
		c0.085,1.369,0.085,2.566,0.085,9.025v7.508c0,4.129,0,7.486-0.235,9.262l-1.219,2.116l-1.562,0.173l-0.663,0.342l0.877,0.428
		l5.348-0.129c1.155,0,3.828,0.129,6.63,0.129l0.813-0.428L484.657,998.611"/>
	<path d="M511.328,966.635c-12.767,0-17.558,9.432-17.558,16.704c0,7.528,4.919,16.661,17.131,16.661
		c10.822,0,17.603-7.701,17.603-17.433C528.504,972.817,521.938,966.635,511.328,966.635 M512.698,997.861
		c-8.171,0-13.067-6.993-13.067-15.868c0-10.589,5.603-13.304,10.479-13.304c6.95,0,12.427,5.922,12.427,15.441
		C522.537,996.427,515.672,997.861,512.698,997.861"/>
	<path d="M549.723,980.001l-1.178-0.896c-3.528-2.676-4.513-4.173-4.513-6.117c0-2.566,1.903-4.385,5.048-4.385
		c2.779,0,4,1.281,4.663,2.095l1.09,2.803l0.406,0.769l0.492-1.281c0-3.316,0.148-4.557,0.148-5.092l-0.598-0.533
		c-1.09-0.28-2.888-0.728-5.646-0.728c-5.903,0-9.838,3.357-9.838,8.041c0,3.465,1.624,6.418,6.308,10.095l1.946,1.541
		c3.528,2.758,4.191,4.706,4.191,6.78c0,2.266-1.881,4.876-5.71,4.876c-2.63,0-5.153-1.175-6.073-4.319l-0.386-2.184l-0.428-0.704
		l-0.514,1.11c-0.021,0.686-0.214,3.209-0.214,5.563l0.813,1.454c1.818,0.791,3.742,1.112,6.202,1.112
		c2.268,0,4.641-0.385,6.78-1.755c3.059-1.989,4-4.939,4-7.398C556.716,986.804,554.876,983.874,549.723,980.001"/>
</g>
</svg>
